<?xml version="1.0" standalone="no"?>
<!DOCTYPE svg PUBLIC "-//W3C//DTD SVG 20010904//EN"
 "http://www.w3.org/TR/2001/REC-SVG-20010904/DTD/svg10.dtd">
<svg version="1.0" xmlns="http://www.w3.org/2000/svg"
 width="4758.000000pt" height="5642.000000pt" viewBox="0 0 4758.000000 5642.000000"
 preserveAspectRatio="xMidYMid meet">
<metadata>
Created by potrace 1.16, written by Peter Selinger 2001-2019
</metadata>
<g transform="translate(0.000000,5642.000000) scale(0.100000,-0.100000)"
fill="#000000" stroke="none">
<path d="M22650 44800 c-94 -8 -290 -51 -405 -89 -141 -47 -324 -156 -505
-301 -41 -33 -81 -63 -87 -66 -7 -3 -42 15 -78 41 -36 25 -109 66 -163 91 -53
24 -106 49 -117 56 -29 17 -265 79 -430 113 -109 23 -436 20 -551 -4 -165 -35
-309 -73 -329 -85 -11 -7 -55 -25 -97 -39 -190 -65 -417 -222 -608 -420 l-126
-131 -54 26 c-97 45 -330 108 -535 144 -103 18 -347 18 -450 -1 -119 -21 -359
-80 -449 -110 -184 -62 -484 -264 -662 -447 -80 -81 -190 -223 -240 -308 l-16
-27 -122 30 c-66 16 -150 33 -186 39 -110 16 -398 21 -475 8 -168 -29 -450
-101 -469 -120 -5 -5 -16 -10 -24 -10 -23 0 -163 -71 -252 -128 -237 -153
-408 -315 -562 -535 -75 -107 -181 -292 -200 -348 -3 -10 -19 -10 -77 0 -103
18 -356 17 -460 -3 -229 -44 -492 -117 -548 -152 -12 -7 -52 -30 -90 -50 -247
-132 -491 -356 -664 -609 -52 -77 -111 -171 -131 -210 -36 -69 -118 -309 -118
-344 0 -16 -14 -19 -135 -25 -137 -7 -191 -16 -370 -60 -175 -43 -228 -62
-371 -135 -198 -101 -295 -173 -475 -358 -228 -233 -353 -427 -438 -681 -33
-96 -101 -378 -101 -417 0 -14 -7 -26 -17 -29 -10 -3 -102 -26 -204 -51 -266
-64 -336 -94 -529 -220 -194 -128 -345 -259 -440 -385 -123 -162 -157 -209
-181 -255 -14 -27 -33 -63 -42 -80 -132 -245 -201 -536 -210 -889 -1 -33 -6
-60 -12 -62 -179 -46 -398 -152 -550 -266 -118 -89 -291 -255 -367 -353 -26
-33 -74 -100 -107 -150 -148 -223 -169 -260 -186 -330 -9 -38 -23 -86 -31
-105 -8 -19 -30 -102 -50 -185 l-37 -150 0 -235 c0 -183 3 -249 15 -298 l16
-63 -86 -43 c-115 -58 -388 -263 -482 -363 -131 -137 -186 -210 -277 -367 -87
-150 -103 -188 -166 -391 -17 -55 -58 -236 -76 -331 -14 -77 -14 -329 0 -408
10 -61 58 -274 83 -374 l13 -52 -106 -74 c-224 -157 -525 -544 -612 -787 -16
-45 -34 -88 -40 -96 -15 -17 -77 -277 -91 -383 -15 -106 -15 -349 -1 -455 6
-44 30 -156 53 -249 35 -138 53 -189 100 -281 l58 -113 -90 -88 c-100 -100
-235 -274 -316 -409 -30 -49 -63 -102 -74 -118 -27 -37 -75 -200 -132 -445
-34 -145 -36 -161 -36 -335 0 -189 3 -209 60 -452 29 -123 68 -255 79 -269 5
-6 13 -28 19 -48 10 -35 6 -46 -67 -190 -67 -133 -82 -173 -115 -308 -33 -131
-40 -183 -49 -332 -16 -267 -1 -489 47 -683 32 -130 48 -172 118 -315 80 -161
144 -265 188 -305 12 -11 45 -46 72 -78 l51 -58 -39 -56 c-45 -66 -73 -117
-148 -268 -44 -91 -60 -138 -90 -275 -20 -91 -41 -184 -46 -207 -14 -58 -13
-419 1 -485 30 -148 83 -355 99 -392 10 -22 41 -95 69 -161 32 -73 72 -148
104 -190 29 -38 74 -101 101 -138 27 -38 106 -126 177 -196 l129 -127 -31 -74
c-35 -81 -111 -377 -134 -515 -20 -118 -19 -347 0 -450 26 -135 85 -375 110
-451 31 -93 142 -298 214 -394 163 -219 318 -367 527 -504 l41 -27 -33 -147
c-52 -231 -57 -272 -51 -447 3 -88 9 -180 12 -205 12 -89 78 -356 101 -409 13
-29 24 -58 24 -63 0 -18 73 -163 118 -233 89 -139 211 -292 314 -390 121 -116
313 -252 471 -335 l112 -58 -3 -39 c-11 -170 -13 -397 -2 -463 17 -107 77
-362 106 -449 50 -149 180 -367 319 -536 87 -106 260 -263 365 -333 47 -30
103 -68 125 -83 89 -60 278 -137 420 -173 l50 -12 11 -145 c12 -150 17 -180
58 -344 32 -133 60 -223 80 -260 9 -16 16 -37 16 -45 0 -8 16 -40 35 -70 19
-30 35 -59 35 -66 0 -19 166 -251 237 -331 204 -229 515 -441 763 -523 95 -31
380 -99 417 -100 l31 0 31 -123 c76 -310 87 -344 158 -477 181 -341 409 -579
743 -778 249 -148 551 -230 918 -249 68 -3 102 -9 102 -17 0 -30 54 -175 96
-258 123 -241 278 -438 504 -639 85 -76 254 -199 273 -199 6 0 42 -20 81 -44
39 -24 87 -47 106 -51 19 -3 49 -13 65 -21 17 -8 116 -35 220 -60 175 -42 203
-46 360 -51 152 -5 252 1 396 23 l36 6 42 -85 c74 -150 270 -400 412 -527 89
-79 230 -184 284 -212 22 -11 52 -29 67 -40 95 -67 350 -150 653 -213 85 -18
371 -20 459 -4 74 14 281 62 356 83 42 12 56 13 62 3 93 -162 330 -397 538
-537 101 -67 261 -160 277 -160 11 0 93 -33 133 -54 24 -13 269 -72 396 -95
78 -14 340 -14 418 0 131 24 372 82 391 94 11 6 57 25 103 40 46 16 103 41
127 56 l43 27 47 -59 c26 -33 70 -78 98 -99 399 -306 491 -354 812 -429 263
-61 265 -61 465 -61 l189 0 183 45 c198 48 277 71 357 105 36 16 55 19 63 12
27 -22 236 -124 293 -143 33 -11 128 -36 210 -56 l150 -37 305 0 305 0 150 37
c199 48 250 66 379 132 112 57 203 119 336 225 41 33 81 63 87 66 7 3 41 -14
75 -38 35 -25 108 -66 163 -92 55 -26 109 -52 120 -58 30 -17 271 -80 430
-113 97 -21 434 -20 532 0 375 78 538 143 778 309 101 70 160 121 266 230
l135 139 55 -25 c96 -45 330 -108 534 -144 103 -18 347 -18 450 1 119 21 359
80 449 110 81 27 291 139 381 204 174 123 345 294 462 462 l82 115 138 -32
c214 -50 248 -54 418 -54 169 0 200 4 420 52 152 33 254 63 269 78 6 6 17 10
26 10 8 0 60 22 115 49 116 56 292 178 418 289 157 137 332 371 430 575 l52
108 40 -6 c167 -25 386 -23 530 4 108 20 314 73 400 103 291 99 639 379 857
687 57 80 120 180 140 221 35 71 95 238 117 326 l11 41 130 7 c123 6 196 19
390 65 245 59 419 144 636 314 75 58 244 208 244 216 0 4 23 34 51 66 69 79
232 327 270 411 17 38 42 101 55 139 34 94 103 381 104 427 l0 36 128 32 c218
53 236 58 314 84 120 41 155 58 288 146 279 184 382 284 606 589 23 31 73 126
112 211 109 240 169 501 178 775 1 60 7 111 11 112 240 59 518 215 725 407
147 138 364 422 420 553 21 49 38 92 38 96 0 5 10 22 21 39 34 47 116 409 124
544 3 60 11 130 16 155 7 33 7 58 -1 85 -6 22 -15 73 -20 114 -5 41 -12 91
-15 110 l-7 35 78 38 c187 93 433 292 582 472 83 100 211 289 237 350 10 22
30 69 46 105 16 36 36 90 44 120 9 30 20 69 25 85 10 35 33 132 61 259 15 71
19 129 19 276 0 147 -4 205 -19 276 -33 152 -51 228 -61 254 -29 80 -28 83 61
149 255 193 432 405 603 724 20 38 43 78 50 90 11 19 82 305 115 465 14 69 14
367 0 446 -21 120 -63 302 -81 356 -11 30 -24 75 -30 100 -6 25 -30 77 -54
116 -24 39 -44 74 -44 77 0 4 49 56 109 115 88 86 131 140 223 277 146 220
153 231 183 322 82 242 137 529 138 708 0 180 -81 558 -154 711 -10 23 -19 52
-19 66 0 13 33 89 73 169 63 124 78 165 111 299 33 130 40 183 49 333 16 266
1 488 -47 682 -32 130 -48 172 -118 315 -93 188 -122 232 -229 349 l-77 84 50
68 c27 38 54 86 60 107 6 20 18 49 28 63 10 14 26 45 36 70 9 24 21 49 25 54
19 25 70 217 114 428 18 87 21 420 4 511 -37 200 -85 376 -128 463 -12 23 -21
46 -21 52 0 23 -73 146 -165 280 -76 110 -130 174 -233 276 l-133 133 19 39
c39 78 104 316 147 538 19 102 20 352 0 460 -21 119 -80 359 -110 448 -38 113
-140 297 -242 435 -113 152 -319 347 -485 456 -50 33 -56 41 -48 59 14 32 50
192 62 267 16 109 21 407 8 485 -17 100 -77 354 -99 417 -48 137 -66 176 -118
262 -212 349 -467 595 -790 763 -120 62 -138 75 -137 95 1 13 7 77 13 143 18
195 6 306 -66 605 -37 153 -54 206 -102 305 -79 164 -125 238 -236 374 -128
157 -268 285 -438 399 -150 100 -205 128 -327 168 -41 14 -86 31 -100 38 -14
8 -41 17 -60 21 -71 14 -66 4 -73 143 -7 121 -19 193 -66 392 -33 139 -56 201
-126 335 -149 289 -369 538 -635 719 -154 105 -257 159 -399 206 -102 34 -380
100 -419 100 -28 0 -29 2 -60 128 -86 356 -125 448 -285 687 -75 112 -234 287
-327 361 -152 121 -274 201 -396 259 -158 76 -186 86 -378 132 -161 38 -244
50 -423 59 l-111 6 -7 36 c-32 173 -201 470 -377 663 -175 192 -421 385 -576
451 -48 21 -90 38 -95 38 -4 0 -24 11 -45 24 -24 16 -107 41 -237 72 l-200 48
-240 0 c-183 0 -254 -4 -301 -16 l-60 -15 -23 58 c-24 62 -150 250 -251 373
-170 208 -451 421 -670 508 -149 59 -247 87 -484 139 -105 22 -399 27 -500 7
-72 -13 -269 -60 -343 -81 l-51 -15 -49 71 c-94 139 -261 307 -427 430 -47 34
-225 146 -336 209 -25 15 -63 30 -85 33 -22 4 -51 13 -65 20 -25 13 -276 74
-386 94 -78 14 -350 14 -428 0 -128 -24 -372 -82 -391 -93 -11 -7 -54 -24 -95
-39 -41 -15 -96 -40 -122 -55 l-47 -28 -124 122 c-136 133 -186 172 -327 259
-219 134 -235 140 -580 224 l-165 40 -208 1 -207 0 -188 -44 c-199 -48 -277
-71 -356 -106 l-49 -22 -41 23 c-184 104 -261 134 -479 185 -144 34 -156 35
-385 39 -131 2 -280 0 -332 -5z m522 -568 c240 -55 422 -148 609 -314 36 -32
70 -58 76 -58 5 0 20 11 33 25 24 26 165 113 255 158 28 13 94 39 147 56 453
144 935 31 1287 -305 133 -126 259 -319 317 -484 12 -35 27 -66 33 -68 7 -2
22 9 34 25 109 140 328 302 509 374 162 65 295 89 488 89 216 0 357 -31 545
-119 330 -155 578 -441 684 -786 16 -55 33 -121 37 -148 3 -26 10 -50 14 -52
5 -3 35 18 67 46 156 137 361 238 575 285 116 25 345 30 469 9 196 -32 394
-113 547 -222 92 -66 237 -212 304 -308 134 -192 204 -386 228 -635 7 -63 13
-117 16 -119 2 -2 28 13 59 34 195 129 454 205 699 205 335 0 645 -126 890
-360 112 -107 188 -209 254 -337 107 -209 147 -390 140 -640 -2 -84 -1 -153 3
-153 3 0 42 16 85 36 261 120 621 137 899 43 323 -109 562 -303 733 -594 152
-258 203 -621 132 -923 -11 -46 -18 -88 -15 -92 3 -5 31 0 63 11 142 49 374
66 547 39 274 -42 529 -172 726 -369 331 -332 454 -807 328 -1259 -16 -57 -40
-125 -54 -152 -15 -29 -21 -51 -15 -55 5 -3 47 -1 92 6 216 32 501 -17 712
-123 377 -188 612 -495 707 -923 18 -80 18 -390 1 -470 -35 -159 -95 -316
-161 -419 -46 -73 -44 -76 48 -76 302 0 631 -137 863 -358 179 -171 299 -379
365 -630 33 -130 42 -362 19 -504 -37 -225 -142 -458 -276 -613 -22 -26 -40
-50 -40 -54 0 -4 42 -15 94 -24 484 -86 895 -459 1015 -924 37 -143 44 -197
44 -343 0 -354 -124 -659 -371 -909 -51 -51 -90 -96 -88 -98 3 -3 44 -18 93
-35 169 -56 381 -188 500 -310 127 -131 256 -345 312 -518 44 -138 54 -209 55
-385 1 -143 -3 -186 -22 -274 -70 -314 -255 -597 -504 -774 -49 -34 -88 -66
-88 -72 0 -5 31 -23 68 -40 102 -45 227 -134 323 -228 193 -189 310 -398 371
-664 32 -141 32 -385 0 -526 -56 -242 -153 -427 -328 -624 l-46 -52 35 -43
c86 -108 177 -287 221 -439 38 -134 49 -234 43 -403 -9 -254 -73 -446 -223
-673 -70 -107 -222 -260 -325 -330 -85 -57 -211 -123 -297 -154 -31 -12 -61
-25 -66 -30 -5 -4 30 -45 78 -90 113 -107 201 -226 276 -374 63 -124 90 -205
115 -335 80 -436 -71 -885 -402 -1190 -163 -151 -396 -267 -620 -311 -35 -6
-63 -16 -63 -21 0 -5 29 -44 64 -88 116 -142 205 -317 251 -495 35 -136 46
-393 21 -535 -29 -168 -103 -357 -194 -495 -90 -137 -245 -289 -388 -380 -178
-114 -437 -195 -625 -195 -37 0 -70 -3 -73 -8 -2 -4 11 -32 31 -62 93 -147
149 -290 184 -470 18 -99 21 -137 16 -275 -7 -211 -43 -359 -133 -537 -153
-303 -420 -534 -746 -643 -154 -51 -281 -68 -460 -62 -82 3 -148 4 -148 3 0
-1 18 -44 40 -95 67 -158 91 -272 97 -456 7 -215 -11 -326 -84 -515 -112 -288
-313 -515 -594 -671 -96 -53 -278 -114 -399 -134 -168 -27 -337 -20 -513 21
-37 9 -70 14 -74 11 -3 -3 6 -50 20 -104 94 -360 30 -721 -188 -1053 -68 -105
-250 -282 -358 -348 -349 -217 -738 -266 -1117 -141 -36 11 -82 30 -102 40
-21 11 -39 15 -43 10 -3 -6 0 -43 6 -83 14 -92 6 -319 -15 -413 -52 -237 -162
-450 -317 -618 -233 -253 -540 -396 -889 -413 -252 -13 -513 51 -708 173 -79
49 -82 47 -82 -49 0 -233 -89 -502 -235 -713 -69 -99 -234 -260 -338 -328
-234 -156 -478 -224 -762 -214 -194 7 -336 40 -498 117 -94 44 -250 144 -286
184 -14 14 -29 26 -35 26 -6 0 -19 -44 -29 -99 -63 -348 -264 -649 -562 -845
-220 -144 -436 -208 -705 -208 -359 -1 -671 129 -923 384 -44 44 -81 77 -85
74 -3 -3 -17 -44 -32 -90 -52 -162 -194 -389 -317 -508 -127 -123 -343 -252
-513 -307 -138 -44 -209 -54 -385 -55 -143 -1 -186 3 -274 22 -319 71 -611
265 -786 520 -26 40 -53 72 -59 72 -6 0 -24 -31 -41 -68 -97 -218 -327 -454
-561 -574 -110 -57 -205 -91 -332 -120 -139 -32 -385 -32 -524 0 -242 55 -423
149 -610 315 l-67 59 -38 -29 c-219 -171 -515 -272 -798 -273 -411 0 -831 225
-1059 570 -81 121 -98 157 -166 334 l-11 29 -81 -87 c-121 -131 -275 -241
-442 -316 -251 -112 -581 -133 -866 -54 -268 75 -550 277 -701 504 -107 160
-176 325 -210 497 -6 35 -14 63 -17 63 -3 0 -31 -21 -61 -48 -80 -68 -115 -93
-206 -145 -214 -123 -436 -175 -695 -164 -250 11 -459 78 -664 214 -89 59
-240 205 -312 300 -143 190 -237 441 -251 671 -3 56 -10 105 -14 107 -4 3 -28
-8 -52 -25 -137 -92 -329 -166 -512 -195 -205 -34 -476 -4 -663 71 -57 24
-213 104 -247 127 -290 204 -474 478 -552 824 -13 59 -17 124 -17 266 0 165
-2 188 -16 183 -8 -2 -51 -20 -95 -40 -259 -114 -594 -128 -877 -35 -308 100
-557 300 -726 583 -161 269 -216 652 -135 948 22 83 17 90 -50 67 -100 -34
-235 -52 -372 -52 -335 2 -662 139 -901 377 -267 267 -401 630 -374 1008 12
164 42 289 96 402 13 28 20 54 16 58 -4 4 -46 3 -93 -3 -108 -15 -308 -5 -419
20 -449 102 -807 423 -950 850 -52 154 -63 222 -64 401 -1 126 3 185 18 250
37 172 88 305 163 425 18 27 29 53 27 57 -3 4 -40 8 -84 8 -311 0 -647 145
-880 379 -169 170 -280 364 -343 601 -28 108 -30 127 -31 305 -1 174 2 199 26
295 15 58 36 130 48 160 53 134 164 323 225 380 14 13 25 29 25 35 0 7 -39 18
-93 28 -397 70 -742 329 -925 692 -95 190 -134 357 -133 575 0 169 15 265 66
417 64 191 168 357 317 507 44 43 77 80 74 83 -3 3 -44 18 -93 35 -169 56
-381 188 -500 310 -166 171 -294 412 -349 658 -28 120 -25 386 5 519 70 318
264 611 521 786 38 27 70 53 70 59 0 6 -31 24 -68 41 -156 69 -346 228 -467
389 -105 141 -196 345 -225 506 -6 36 -16 74 -21 85 -18 38 -5 330 19 438 54
237 148 421 309 602 35 38 63 75 63 81 0 6 -7 18 -16 25 -29 24 -95 129 -149
237 -215 435 -166 942 128 1337 143 193 372 362 597 441 36 12 65 27 65 32 0
5 -27 32 -61 59 -70 59 -109 102 -186 210 -168 235 -248 480 -248 763 0 139 5
177 42 325 88 354 361 682 693 836 102 47 219 86 303 100 34 6 65 16 68 21 4
5 -11 29 -33 51 -133 140 -247 363 -295 577 -32 144 -32 398 -1 540 41 182
132 384 233 514 63 83 197 211 286 274 194 139 466 232 675 232 37 0 71 5 74
10 4 6 -10 35 -30 66 -41 61 -115 214 -139 286 -31 93 -57 245 -63 360 -12
249 63 528 201 747 154 242 415 442 693 529 162 51 204 57 406 57 163 0 187 2
183 15 -2 8 -20 54 -40 102 -108 258 -125 574 -46 835 88 290 244 511 488 691
295 219 700 296 1064 205 37 -10 69 -15 72 -12 3 3 -4 34 -15 69 -33 105 -49
226 -49 360 0 493 288 948 734 1160 155 74 301 111 486 125 165 12 420 -31
557 -95 35 -16 65 -25 68 -20 3 5 1 49 -6 97 -15 109 -6 286 20 408 107 498
489 883 991 996 114 25 311 35 423 20 184 -25 375 -90 503 -170 26 -17 53 -31
59 -31 8 0 14 37 18 113 16 325 147 619 376 847 343 342 829 464 1290 324 155
-47 326 -139 436 -234 26 -22 50 -40 54 -40 4 0 13 33 20 73 51 289 172 519
383 723 240 233 546 355 888 356 166 0 273 -17 421 -67 190 -65 392 -193 518
-332 34 -36 64 -63 67 -60 3 3 19 45 36 94 56 168 193 388 315 504 171 165
418 295 653 345 131 28 382 26 519 -5 318 -70 611 -264 786 -519 26 -40 53
-72 59 -72 6 0 24 31 41 68 98 220 326 453 561 574 114 59 210 93 330 117 53
11 99 23 102 26 4 3 78 4 167 2 119 -2 185 -9 257 -25z"/>
<path d="M23370 41415 c-164 -102 -284 -219 -364 -356 -21 -38 -33 -48 -61
-52 -19 -3 -62 -18 -95 -33 -60 -27 -61 -27 -93 -9 -27 14 -50 17 -128 13
-150 -7 -291 -64 -546 -221 -83 -51 -128 -84 -120 -89 6 -4 29 -10 49 -13 21
-4 38 -10 38 -14 0 -4 -12 -23 -26 -42 -36 -46 -89 -161 -108 -234 -40 -148
-28 -360 30 -534 56 -167 193 -420 332 -611 30 -41 111 -131 181 -200 128
-127 227 -203 337 -259 57 -29 69 -31 167 -31 l105 0 88 58 c468 308 759 781
802 1303 5 57 7 145 4 195 l-4 90 60 -4 c110 -8 109 -3 -35 164 -210 245 -270
296 -408 341 -63 20 -104 26 -192 28 l-112 3 -44 38 -44 39 16 45 c34 94 153
183 308 229 39 12 73 27 76 34 6 18 -9 74 -28 103 -18 28 -72 64 -95 64 -9 0
-49 -20 -90 -45z m147 -17 c33 -36 34 -88 2 -88 -78 0 -217 -75 -285 -153 -59
-69 -120 -182 -144 -269 -13 -46 -26 -87 -30 -91 -8 -9 -80 33 -80 47 0 28 36
139 65 196 59 118 165 226 328 337 72 49 113 55 144 21z m-775 -480 c22 -13
46 -35 54 -49 13 -26 12 -27 -14 -34 -15 -3 -83 -32 -152 -65 -185 -86 -218
-95 -340 -95 -58 0 -131 6 -164 14 -73 18 -75 17 139 122 261 129 387 157 477
107z m828 -86 c36 -17 97 -54 135 -83 69 -52 335 -313 335 -330 0 -10 -46 -3
-115 18 -79 24 -422 208 -510 273 -44 33 -106 73 -138 89 -31 16 -53 32 -48
35 32 20 125 35 196 33 65 -3 92 -9 145 -35z m-607 -35 c18 -8 38 -21 46 -30
19 -23 6 -40 -142 -194 -156 -163 -231 -249 -300 -345 l-55 -78 -16 48 c-25
77 -39 181 -32 241 17 146 148 281 336 348 75 26 117 29 163 10z m306 -53 c82
-45 176 -119 237 -187 105 -117 264 -388 227 -387 -94 3 -258 52 -334 100 -70
46 -184 171 -266 293 -81 120 -89 152 -48 192 38 38 101 34 184 -11z"/>
<path d="M23030 38212 c-9 -4 -17 -23 -19 -44 l-3 -38 44 0 c84 -1 154 -52
212 -153 48 -84 101 -92 201 -28 89 56 145 61 194 17 48 -43 55 -78 55 -266 1
-197 7 -216 71 -247 33 -16 37 -16 69 0 42 20 49 41 70 223 21 175 32 224 65
277 31 48 96 87 145 87 101 0 202 -133 247 -325 23 -101 47 -146 84 -163 61
-28 85 -15 196 99 109 113 119 114 217 29 81 -70 92 -93 92 -199 0 -133 29
-191 95 -191 52 0 95 52 95 113 0 18 -2 19 -10 7 -17 -28 -22 -1 -9 57 l13 58
7 -45 6 -45 1 40 c2 47 32 157 55 202 43 83 142 111 205 58 60 -50 71 -100 74
-325 l3 -202 33 -29 c40 -36 80 -38 119 -5 32 27 48 70 58 156 25 212 71 357
140 438 21 25 26 40 23 74 l-3 42 -60 18 c-428 130 -1052 235 -1675 283 -358
27 -1071 44 -1110 27z"/>
<path d="M20145 37521 c-84 -22 -154 -80 -196 -161 -34 -66 -33 -176 3 -245
31 -60 77 -105 138 -136 35 -18 61 -23 120 -23 84 0 139 21 198 78 59 55 86
120 86 206 0 86 -27 151 -86 206 -67 64 -182 97 -263 75z"/>
<path d="M20615 37441 c57 -86 67 -191 31 -328 -8 -29 -12 -53 -10 -53 27 0
1022 -124 1609 -201 1770 -231 2931 -430 3128 -536 42 -23 53 -34 59 -63 11
-47 2 -109 -22 -147 -89 -147 -542 -259 -1674 -413 -165 -23 -631 -95 -1035
-161 -952 -155 -2025 -326 -2411 -384 -668 -100 -805 -126 -1066 -205 -387
-116 -621 -243 -669 -362 -22 -56 -13 -96 34 -149 67 -76 207 -147 465 -235
595 -204 1466 -352 2641 -449 542 -45 1072 -117 2090 -285 1560 -257 2772
-522 3058 -667 71 -35 177 -126 217 -184 28 -42 35 -62 38 -115 4 -57 1 -72
-27 -129 -74 -150 -301 -312 -641 -458 -258 -111 -1511 -352 -2450 -471 -507
-65 -832 -95 -1425 -131 -2842 -175 -4846 -487 -5489 -855 -146 -84 -217 -165
-237 -276 -14 -78 -2 -118 58 -179 380 -386 2135 -819 4925 -1214 235 -34 433
-61 439 -61 8 0 6 7 -4 18 -50 55 -71 174 -44 249 40 108 147 183 262 183 49
0 75 -6 124 -31 169 -85 203 -300 68 -431 -22 -21 -38 -38 -36 -38 27 -3 1101
-160 1324 -195 2509 -386 3974 -749 4337 -1074 85 -76 107 -145 69 -220 -32
-61 -228 -222 -343 -280 -313 -160 -1112 -339 -3038 -681 l-455 -81 -740 -69
c-3696 -349 -5962 -591 -6549 -701 -212 -40 -346 -113 -515 -280 -228 -227
-354 -517 -338 -781 27 -476 508 -808 1362 -937 209 -32 245 -33 545 -22 2401
92 5181 484 7464 1052 1731 431 2870 922 3421 1474 193 192 287 350 356 595
39 138 39 114 -2 390 -47 311 -263 618 -624 888 -245 183 -470 311 -878 501
-49 23 -91 41 -93 41 -3 0 -146 59 -219 90 -62 27 -154 63 -183 71 -18 6 -31
13 -28 17 2 4 -7 8 -20 8 -13 1 -32 5 -42 10 -9 4 -19 8 -22 9 -28 10 -49 19
-72 31 -16 8 -28 13 -28 9 0 -3 -13 1 -30 10 -16 8 -32 15 -35 15 -3 0 -7 1
-10 1 -3 1 -8 2 -12 3 -5 1 -54 17 -110 34 -516 163 -1407 352 -2293 487 -129
20 -238 39 -241 43 -4 4 -48 94 -99 201 -186 390 -379 723 -561 963 l-58 76
30 12 c46 19 43 27 -9 23 l-47 -5 -71 79 c-40 43 -101 101 -137 128 -36 28
-66 52 -66 55 -1 3 68 13 152 23 240 28 642 83 924 127 1367 212 2306 482
2796 802 126 83 273 231 316 320 35 70 46 130 30 160 -7 13 -4 23 12 39 12 12
27 40 34 63 11 35 10 45 -1 61 -8 10 -14 33 -14 51 0 54 -30 205 -55 277 -72
209 -260 408 -555 590 -91 56 -376 197 -490 242 -52 21 -100 44 -106 51 -6 8
-14 11 -17 7 -4 -3 -13 0 -22 7 -8 7 -15 10 -15 6 0 -4 -10 0 -22 8 -76 47
-551 158 -1068 250 -1084 191 -2189 324 -4125 496 -897 80 -1168 107 -1365
140 -64 10 -131 17 -149 14 -49 -8 -80 3 -93 32 -11 23 -9 28 12 45 87 69 186
109 415 167 478 121 1180 232 2425 381 1422 171 2240 335 2813 562 306 122
532 283 583 415 16 43 16 46 -3 72 -11 15 -24 39 -28 52 -38 124 -147 229
-377 363 -105 61 -382 197 -433 213 -52 16 -224 92 -220 97 3 4 2 5 -1 2 -4
-2 -19 2 -35 11 -16 8 -29 12 -29 8 0 -4 -6 -2 -13 4 -18 15 -298 95 -537 154
-874 213 -2015 375 -3370 478 -146 11 -284 22 -307 25 l-42 6 34 -50z m2593
-317 c37 -19 59 -38 77 -68 101 -173 -143 -336 -321 -214 -147 101 -56 308
136 308 40 0 71 -7 108 -26z m2987 -3724 c53 -25 68 -38 94 -80 63 -103 -22
-232 -161 -247 -127 -13 -238 68 -238 173 0 128 176 216 305 154z m-4969
-2484 c171 -80 92 -256 -116 -256 -115 0 -210 62 -210 137 0 80 93 143 210
143 47 0 79 -7 116 -24z m2044 -383 c223 -235 433 -525 631 -871 85 -148 244
-461 237 -467 -2 -2 -262 33 -578 76 -848 117 -2005 270 -3230 429 -1435 186
-1734 229 -1927 278 -40 10 -78 15 -86 11 -34 -20 -150 29 -181 76 -30 45 -21
76 37 126 92 81 190 119 412 160 94 17 177 21 575 29 1123 21 2363 94 3605
210 176 17 327 32 335 34 63 15 75 9 170 -91z m4690 -4614 c96 -49 148 -133
148 -239 0 -30 -5 -69 -11 -87 -40 -108 -147 -183 -262 -183 -115 0 -222 75
-262 183 -6 18 -11 57 -11 87 0 30 5 69 11 87 40 108 147 183 262 183 49 0 75
-6 125 -31z m-7442 -415 c105 -28 -184 -81 -499 -91 -183 -6 -259 -1 -259 17
0 21 186 56 385 73 73 6 350 7 373 1z m765 -979 c316 -183 847 -639 847 -729
0 -89 -435 195 -791 517 -129 117 -219 221 -219 256 0 26 79 4 163 -44z
m-1392 -414 c21 -22 29 -39 29 -66 0 -51 -44 -95 -95 -95 -51 0 -95 44 -95 95
0 51 44 95 95 95 27 0 44 -8 66 -29z m-1669 -79 c60 -30 120 -90 150 -150 19
-38 23 -63 23 -132 0 -100 -21 -154 -86 -219 -65 -65 -119 -86 -219 -86 -69 0
-94 4 -132 23 -60 29 -121 90 -149 148 -27 57 -36 158 -19 219 25 88 107 176
197 210 58 22 177 15 235 -13z"/>
<path d="M20550 36734 c-463 -63 -723 -104 -735 -116 -2 -2 6 -30 18 -63 19
-54 21 -81 22 -277 l0 -217 29 -30 c37 -39 73 -46 124 -25 60 23 77 59 102
209 25 149 48 222 86 272 39 51 81 73 139 73 129 0 183 -106 169 -332 -8 -119
1 -157 42 -178 33 -18 77 -17 108 3 35 23 60 77 85 177 13 49 30 94 43 107 28
30 177 103 211 103 36 0 94 -54 150 -140 54 -83 97 -113 154 -107 64 7 95 36
153 147 65 124 148 218 228 257 l57 28 -460 57 c-553 68 -590 71 -725 52z"/>
<path d="M21906 36567 c59 -59 68 -100 60 -272 -3 -77 -9 -165 -12 -196 -6
-52 -4 -58 24 -90 26 -29 36 -34 72 -33 44 2 81 23 112 65 11 15 28 76 43 159
30 164 61 233 120 268 65 37 127 20 236 -65 65 -50 112 -62 156 -40 36 19 138
117 121 117 -6 0 -20 -8 -31 -17 -18 -17 -19 -17 -16 2 5 23 51 15 -521 89
-195 25 -366 48 -381 50 -23 4 -22 2 17 -37z"/>
<path d="M25890 35504 c-205 -140 -597 -286 -1094 -405 -116 -28 -227 -55
-247 -60 l-36 -9 38 -73 c38 -72 46 -97 31 -97 -5 0 -25 36 -45 80 -20 46 -42
80 -50 80 -22 0 86 -208 129 -249 31 -29 41 -32 72 -28 46 8 79 41 122 123 42
81 90 134 119 134 25 0 161 -72 184 -98 9 -10 25 -56 36 -102 32 -136 55 -178
107 -194 60 -18 105 42 102 136 -1 36 -2 43 -5 21 -2 -18 -8 -33 -13 -33 -14
0 -24 100 -11 113 8 8 11 3 13 -18 1 -17 4 20 8 80 7 127 25 177 80 213 27 18
44 23 74 19 94 -13 143 -100 181 -321 14 -81 32 -161 40 -176 40 -77 133 -82
171 -9 13 27 15 57 9 208 -9 236 12 355 80 456 23 33 25 46 25 145 l0 110 -27
-1 c-16 0 -57 -20 -93 -45z"/>
<path d="M23960 34922 c-72 -13 -95 -21 -93 -32 9 -77 55 -286 69 -315 30 -63
111 -86 151 -42 31 34 36 61 24 150 -6 45 -13 121 -17 170 -5 72 -9 87 -22 86
-10 0 -60 -8 -112 -17z"/>
<path d="M18540 33841 l0 -222 29 -42 c120 -176 191 -514 191 -918 0 -189 29
-287 98 -334 48 -33 90 -32 139 4 75 54 95 144 107 466 14 394 96 577 256 577
160 0 235 -171 246 -562 6 -209 22 -285 69 -336 25 -27 40 -34 69 -34 113 0
149 80 187 418 14 123 37 174 99 219 25 18 68 52 95 76 28 24 60 49 73 56 62
33 134 -33 236 -217 94 -169 153 -219 235 -201 42 9 98 62 121 114 9 22 38
109 64 194 50 162 97 272 154 359 19 29 33 54 31 55 -2 2 -107 16 -234 31
-854 104 -1615 275 -2099 470 -49 20 -106 39 -128 42 l-38 7 0 -222z"/>
<path d="M21470 33449 c44 -81 61 -236 61 -549 0 -294 7 -340 59 -392 30 -30
45 -38 74 -38 61 0 115 38 149 105 25 50 36 130 47 345 15 296 49 418 132 484
33 26 33 26 8 26 -14 0 -133 9 -265 20 -300 25 -278 25 -265 -1z"/>
<path d="M22175 33399 c11 -7 62 -50 113 -95 105 -94 134 -105 200 -79 30 12
51 31 76 68 23 35 30 54 23 58 -13 7 -179 29 -217 29 l-24 0 22 -20 c21 -20
30 -50 15 -50 -5 0 -20 18 -35 39 -24 33 -35 40 -75 45 -27 4 -64 9 -83 12
-31 5 -33 4 -15 -7z"/>
<path d="M27830 31555 c-31 -33 -163 -137 -245 -192 -364 -244 -1015 -466
-1945 -663 -80 -17 -151 -32 -158 -35 -9 -3 -3 -23 21 -72 47 -93 87 -197 87
-223 0 -41 -26 -4 -68 98 -83 200 -78 190 -106 185 l-25 -5 23 -37 c13 -20 34
-63 49 -96 14 -33 44 -103 67 -156 62 -145 125 -209 205 -209 81 0 128 50 209
224 110 232 175 280 277 202 24 -18 64 -43 89 -56 116 -58 137 -91 175 -276
33 -158 59 -239 92 -282 72 -95 191 -75 229 40 14 44 16 74 10 207 -4 86 -9
170 -11 186 -7 57 15 245 36 301 60 159 202 207 319 107 85 -73 141 -241 185
-559 28 -205 42 -259 80 -316 32 -49 101 -83 149 -74 39 7 91 56 114 105 14
30 16 60 12 186 -9 307 -5 599 9 675 20 113 65 241 111 316 l40 67 -2 189 -3
190 -25 -27z"/>
<path d="M24593 30511 c-94 -14 -174 -29 -178 -33 -4 -3 3 -37 14 -76 12 -38
34 -157 51 -263 16 -107 37 -219 46 -249 20 -69 80 -132 143 -151 39 -12 47
-11 79 7 46 24 79 73 88 130 4 26 0 101 -9 172 -9 70 -19 209 -23 310 -6 158
-9 182 -23 181 -9 -1 -93 -13 -188 -28z"/>
<path d="M16760 29413 c0 -264 0 -264 24 -296 77 -102 147 -293 172 -472 12
-90 16 -178 14 -350 -6 -454 -6 -437 13 -487 20 -52 89 -121 142 -144 106 -44
247 19 296 132 27 65 36 105 58 264 52 371 101 512 215 625 69 69 122 91 217
89 162 -3 274 -104 325 -291 19 -71 28 -312 17 -443 -23 -264 56 -392 232
-378 120 10 192 112 239 338 40 190 71 259 138 300 17 10 65 30 107 46 42 15
102 43 135 63 47 28 68 35 110 35 28 0 65 -8 82 -16 60 -32 139 -125 218 -257
94 -157 148 -220 218 -255 63 -32 118 -33 192 -6 82 31 133 90 218 255 125
241 237 385 370 475 l58 38 -73 12 c-514 85 -1150 205 -1607 306 -989 218
-1611 412 -1965 612 -55 32 -115 60 -132 63 l-33 6 0 -264z m3484 -925 c-14
-48 -164 -335 -184 -353 -85 -77 26 177 149 343 29 37 45 42 35 10z m-3171
-252 c14 -35 19 -183 8 -223 -10 -35 -16 -43 -35 -43 -13 0 -27 7 -30 16 -8
21 13 223 25 247 12 21 25 22 32 3z"/>
<path d="M21056 28592 c23 -15 83 -121 101 -178 16 -51 18 -91 16 -299 -1
-132 -7 -280 -13 -330 -23 -192 -24 -221 -6 -277 10 -29 30 -66 44 -82 58 -62
159 -83 244 -49 133 51 167 122 218 452 41 269 73 361 152 447 59 65 103 84
185 84 112 -1 196 -44 343 -175 99 -88 140 -114 204 -127 43 -8 64 -7 109 6
48 14 71 31 166 121 61 57 126 112 144 122 l32 17 -160 23 c-88 12 -389 54
-670 93 -280 39 -645 91 -809 115 -327 49 -316 48 -300 37z m214 -732 c16 -31
19 -51 15 -97 -12 -118 -35 -162 -71 -133 -12 11 -15 34 -13 111 1 54 5 96 10
93 5 -3 9 -1 9 5 0 14 19 61 25 61 2 0 14 -18 25 -40z"/>
<path d="M29325 25617 c-175 -158 -414 -329 -646 -463 -623 -358 -1508 -683
-2678 -983 -150 -39 -275 -72 -277 -74 -3 -2 14 -17 37 -32 66 -47 175 -170
247 -282 104 -162 152 -217 219 -248 50 -24 66 -27 130 -23 56 4 81 11 111 31
60 39 107 94 159 185 108 187 178 273 251 308 49 23 120 21 170 -5 23 -12 86
-33 140 -47 107 -29 152 -52 180 -92 11 -15 42 -97 71 -182 57 -172 89 -230
152 -272 78 -52 210 -32 272 41 53 64 60 133 34 351 -28 230 -1 399 79 497 73
89 171 130 293 121 79 -6 131 -30 189 -89 86 -86 139 -214 197 -475 19 -88 41
-182 49 -209 29 -95 95 -158 186 -175 83 -16 156 9 217 72 67 69 82 151 59
323 -36 267 -31 520 14 682 10 37 22 106 25 153 10 113 40 228 68 258 12 13
50 40 85 59 35 20 66 41 68 47 2 6 3 147 2 312 l-3 301 -100 -90z m-3353
-1619 c58 -63 167 -227 183 -276 11 -37 -21 -26 -58 21 -30 37 -135 204 -166
265 -18 34 5 28 41 -10z"/>
<path d="M24815 23895 c-110 -24 -283 -61 -384 -81 l-184 -38 51 -16 c66 -22
92 -40 135 -92 67 -83 85 -131 141 -374 43 -187 69 -256 113 -305 86 -95 264
-99 350 -7 54 57 65 133 37 260 -9 40 -20 116 -24 168 -5 52 -14 136 -21 185
-13 103 -6 242 15 303 15 41 15 42 -7 41 -12 0 -112 -20 -222 -44z m179 -521
c6 -10 15 -22 20 -26 12 -8 21 -128 12 -163 -7 -27 -37 -34 -53 -12 -29 38
-41 141 -22 196 12 34 26 36 43 5z"/>
<path d="M23985 23725 c-60 -13 -211 -42 -335 -64 -124 -22 -226 -44 -228 -50
-2 -5 -22 -7 -45 -4 -49 6 -50 7 53 -76 88 -72 149 -96 225 -88 72 7 123 36
210 116 104 97 153 135 210 164 61 32 51 32 -90 2z"/>
<path d="M30595 22682 c445 -176 740 -341 930 -524 169 -161 235 -289 235
-453 0 -164 -66 -292 -235 -454 -547 -522 -2092 -978 -4220 -1245 -990 -125
-2026 -201 -3215 -236 -693 -21 -2010 -11 -2740 20 -2526 108 -4705 457 -5980
957 -224 88 -519 235 -667 332 -216 143 -375 316 -428 466 -32 92 -34 213 -5
309 64 205 313 430 694 628 83 42 146 78 139 78 -7 0 -153 -36 -325 -79 -1527
-386 -2712 -885 -3393 -1428 -137 -109 -331 -302 -414 -412 -369 -487 -373
-974 -10 -1459 89 -119 277 -308 424 -425 1312 -1047 4381 -1868 8175 -2187
4504 -378 9361 -27 12615 913 748 217 1332 434 1870 696 532 260 898 504 1180
786 569 568 612 1150 129 1735 -604 732 -2094 1401 -4209 1890 -205 48 -602
134 -670 146 -16 3 38 -22 120 -54z m-9888 -3315 c29 -32 33 -43 33 -92 0 -48
-19 -193 -36 -279 -9 -42 -69 -104 -110 -112 -80 -15 -155 30 -168 100 -8 44
30 299 53 352 24 54 68 76 140 71 47 -3 59 -9 88 -40z m-3604 -31 c54 -22 87
-70 87 -124 0 -38 -9 -61 -55 -136 -37 -63 -105 -219 -220 -506 -288 -718
-312 -774 -376 -867 -40 -58 -100 -80 -173 -64 -37 8 -62 21 -84 44 -47 50
-151 321 -262 687 -34 113 -93 304 -131 425 -106 341 -118 409 -79 473 38 63
141 89 209 54 52 -26 72 -62 102 -180 30 -120 188 -650 251 -841 38 -116 42
-123 53 -100 20 38 180 433 276 682 93 241 134 325 195 396 59 68 133 89 207
57z m7018 -22 c44 -39 62 -100 67 -231 5 -119 4 -124 -21 -162 -18 -27 -40
-44 -73 -57 -84 -32 -164 7 -216 104 -22 41 -59 55 -130 49 -77 -7 -146 -46
-242 -137 -347 -331 -429 -737 -174 -864 43 -21 66 -26 130 -26 95 0 172 24
266 82 219 135 241 143 315 110 59 -26 87 -70 87 -134 0 -62 -31 -98 -159
-183 -154 -102 -302 -156 -467 -170 -306 -25 -572 175 -631 474 -14 72 -15 97
-5 179 32 253 175 509 409 732 184 176 335 239 543 227 82 -5 100 -3 130 14
46 25 139 22 171 -7z m-3949 -29 c52 -35 71 -76 66 -142 -5 -60 -38 -105 -95
-129 -73 -31 -180 -5 -222 55 -105 147 94 319 251 216z m9220 0 c52 -35 71
-76 66 -142 -5 -60 -38 -105 -95 -129 -73 -31 -180 -5 -222 55 -105 147 94
319 251 216z m-948 -101 c54 -34 86 -130 86 -251 l0 -73 128 0 c113 0 133 -3
172 -22 52 -27 70 -56 70 -116 0 -54 -22 -97 -63 -122 -27 -17 -51 -20 -142
-20 -60 0 -120 -3 -132 -6 l-23 -6 7 -377 c6 -341 5 -381 -11 -428 -40 -119
-170 -151 -258 -63 l-38 38 -1 238 c0 260 -12 571 -22 581 -4 3 -53 10 -109
15 -136 12 -171 22 -202 59 -33 39 -36 117 -6 166 33 55 67 66 196 61 l114 -3
0 131 c0 120 2 134 22 159 48 61 151 80 212 39z m-9574 -339 c29 -27 46 -65
52 -114 3 -23 4 -23 47 13 137 115 326 147 460 79 134 -68 181 -207 181 -531
0 -94 6 -195 16 -252 8 -52 18 -143 21 -201 l5 -106 -31 -35 c-51 -59 -136
-71 -213 -32 -42 22 -55 58 -80 225 -19 128 -23 196 -23 404 0 138 -4 256 -8
263 -5 6 -25 12 -46 12 -76 0 -172 -91 -241 -230 -59 -118 -69 -159 -86 -383
-18 -233 -25 -257 -84 -291 -46 -27 -124 -27 -170 0 -66 38 -74 70 -74 314 0
118 4 351 9 516 9 280 11 304 30 324 42 48 76 61 142 58 53 -3 67 -9 93 -33z
m2774 -15 c73 -35 98 -108 76 -215 -16 -78 -52 -115 -110 -115 -53 0 -96 22
-116 61 l-16 31 -136 -4 c-160 -5 -212 -20 -212 -62 0 -34 38 -59 209 -136
184 -83 256 -128 323 -197 93 -98 110 -200 52 -320 -43 -91 -139 -156 -282
-195 -59 -15 -109 -20 -212 -21 -156 -1 -261 22 -352 76 -94 56 -123 156 -64
216 40 40 117 40 250 2 149 -42 282 -40 345 6 67 51 21 104 -160 182 -198 86
-259 120 -315 173 -71 67 -97 124 -98 213 -1 122 60 213 177 265 102 45 284
70 478 66 97 -3 125 -7 163 -26z m-1562 -2 c22 -6 52 -27 70 -47 l31 -35 -7
-240 c-4 -133 -7 -349 -6 -481 0 -219 -2 -243 -19 -271 -28 -45 -81 -67 -153
-62 -52 4 -63 9 -96 41 l-37 37 -8 217 c-5 139 -4 283 2 398 6 99 11 213 11
253 0 80 15 125 52 160 43 39 96 49 160 30z m5064 -7 c79 -36 124 -135 124
-274 0 -98 -16 -151 -55 -186 -59 -51 -164 -50 -214 3 -21 23 -36 92 -40 192
-1 17 -72 0 -147 -35 -72 -34 -136 -89 -176 -150 l-28 -45 0 -286 c0 -320 -3
-335 -71 -372 -46 -26 -148 -21 -180 7 -48 43 -49 54 -49 542 0 252 5 476 10
497 5 22 22 53 39 69 25 26 40 31 88 34 71 5 118 -17 144 -65 10 -19 20 -36
22 -38 3 -3 27 8 53 25 147 89 377 129 480 82z m4156 7 c22 -6 52 -27 70 -47
l31 -35 -7 -240 c-4 -133 -7 -349 -6 -481 0 -219 -2 -243 -19 -271 -28 -45
-81 -67 -153 -62 -52 4 -63 9 -96 41 l-37 37 -8 217 c-5 139 -4 283 2 398 6
99 11 213 11 253 0 80 15 125 52 160 43 39 96 49 160 30z m526 -8 c41 -25 80
-106 207 -425 48 -121 89 -222 91 -224 5 -5 61 117 150 331 103 247 122 286
156 309 89 64 248 2 248 -97 0 -57 -33 -133 -299 -699 -68 -143 -126 -267
-130 -275 -4 -8 -23 -25 -41 -37 -65 -45 -180 -23 -219 41 -16 25 -294 664
-388 890 -27 66 -25 107 7 149 45 57 154 76 218 37z m-11667 -24 c91 -32 175
-81 202 -118 25 -34 26 -79 2 -138 -12 -33 -19 -86 -22 -195 -8 -210 5 -289
67 -430 27 -62 50 -125 50 -139 0 -34 -52 -92 -96 -106 -50 -17 -93 -6 -158
41 l-58 41 -78 -31 c-163 -64 -248 -74 -387 -45 -187 38 -291 127 -348 299
-51 152 -43 347 19 480 78 167 270 318 456 360 100 22 256 14 351 -19z m7977
18 c197 -40 301 -136 302 -278 0 -79 -28 -136 -93 -188 -67 -52 -135 -86 -412
-203 -126 -53 -234 -100 -238 -105 -13 -11 53 -58 115 -82 65 -25 201 -34 282
-19 32 6 99 30 149 52 105 49 160 58 205 35 39 -20 52 -44 52 -93 0 -113 -127
-203 -351 -249 -111 -22 -303 -15 -409 16 -240 69 -380 242 -380 470 0 317
176 575 440 644 74 20 243 20 338 0z m1373 -18 c91 -32 175 -81 202 -118 25
-34 26 -79 2 -138 -12 -33 -19 -86 -22 -195 -8 -210 5 -289 67 -430 27 -62 50
-125 50 -139 0 -34 -52 -92 -96 -106 -50 -17 -93 -6 -158 41 l-58 41 -78 -31
c-163 -64 -248 -74 -387 -45 -187 38 -291 127 -348 299 -51 152 -43 347 19
480 78 167 270 318 456 360 100 22 256 14 351 -19z m3987 18 c197 -40 301
-136 302 -278 0 -79 -28 -136 -93 -188 -67 -52 -135 -86 -412 -203 -126 -53
-234 -100 -238 -105 -13 -11 53 -58 115 -82 65 -25 201 -34 282 -19 32 6 99
30 149 52 105 49 160 58 205 35 39 -20 52 -44 52 -93 0 -113 -127 -203 -351
-249 -111 -22 -303 -15 -409 16 -240 69 -380 242 -380 470 0 317 176 575 440
644 74 20 243 20 338 0z"/>
<path d="M17878 18556 c-142 -51 -247 -178 -264 -317 -9 -77 11 -188 44 -238
40 -62 94 -85 190 -79 55 3 93 12 132 30 94 44 90 35 73 173 -10 79 -13 173
-10 277 4 131 2 158 -10 162 -26 10 -117 5 -155 -8z"/>
<path d="M25880 18561 c-50 -16 -87 -41 -124 -81 -38 -42 -94 -145 -84 -155
11 -11 404 160 452 197 18 14 17 16 -15 27 -43 15 -196 23 -229 12z"/>
<path d="M27228 18556 c-142 -51 -247 -178 -264 -317 -9 -77 11 -188 44 -238
40 -62 94 -85 190 -79 55 3 93 12 132 30 94 44 90 35 73 173 -10 79 -13 173
-10 277 4 131 2 158 -10 162 -26 10 -117 5 -155 -8z"/>
<path d="M31240 18561 c-50 -16 -87 -41 -124 -81 -38 -42 -94 -145 -84 -155
11 -11 404 160 452 197 18 14 17 16 -15 27 -43 15 -196 23 -229 12z"/>
<path d="M22985 15677 l-32 -32 -6 -530 c-3 -292 -11 -599 -17 -684 -15 -191
-9 -234 35 -278 30 -30 38 -33 93 -33 50 0 66 4 91 26 41 34 51 77 51 226 l0
126 66 47 c37 25 70 43 74 38 81 -95 247 -321 285 -387 33 -56 76 -86 123 -86
47 0 101 28 124 64 45 72 6 153 -197 417 -69 89 -125 165 -125 168 0 3 59 65
132 136 72 72 139 144 150 160 52 86 -13 195 -117 195 -52 0 -69 -11 -175
-114 -129 -125 -269 -254 -303 -278 l-28 -20 7 274 c4 150 3 331 -1 403 -7
129 -7 129 -40 162 -30 30 -38 33 -95 33 -57 0 -65 -3 -95 -33z"/>
<path d="M20659 15661 c-83 -19 -122 -39 -141 -73 -14 -27 -14 -28 -10 -799
l2 -576 23 -33 c46 -69 64 -75 208 -73 242 3 463 51 598 130 83 49 181 145
209 205 33 72 30 158 -8 234 -38 76 -98 145 -160 185 l-49 32 43 51 c59 70 84
123 96 204 13 90 -2 179 -42 255 -59 110 -215 226 -354 262 -81 21 -314 19
-415 -4z m348 -256 c57 -17 137 -68 165 -105 49 -67 36 -161 -31 -221 -58 -52
-134 -73 -261 -74 l-105 0 -3 195 c-1 107 0 200 2 207 8 19 169 17 233 -2z
m155 -718 c96 -47 140 -94 136 -145 -3 -33 -9 -40 -54 -65 -84 -44 -433 -121
-464 -102 -6 4 -10 77 -10 182 l0 175 158 -3 158 -4 76 -38z"/>
<path d="M26505 15175 c-214 -35 -304 -119 -305 -283 0 -57 5 -83 24 -120 39
-77 94 -118 280 -208 193 -93 240 -130 217 -173 -30 -55 -183 -67 -321 -26
-46 14 -108 25 -138 25 -46 0 -58 -4 -83 -29 -53 -54 -30 -142 50 -193 82 -52
170 -72 311 -72 139 0 205 14 303 67 138 73 194 222 133 352 -38 82 -117 144
-296 232 -85 42 -170 87 -188 100 -77 58 -2 102 174 103 97 0 101 -1 112 -24
18 -39 54 -58 108 -54 68 4 88 34 92 137 7 152 -34 181 -253 180 -77 -1 -176
-7 -220 -14z"/>
<path d="M25682 15165 c-67 -15 -155 -52 -202 -85 -36 -26 -35 -26 -50 10 -20
48 -55 70 -112 70 -66 0 -102 -20 -122 -70 -14 -35 -16 -97 -16 -476 0 -468 0
-472 52 -508 29 -20 110 -21 148 -1 57 29 60 48 60 338 l0 264 31 46 c16 25
47 60 67 78 42 37 144 87 187 91 l30 3 5 -75 c8 -115 30 -140 120 -140 113 0
146 53 138 224 -4 85 -9 114 -29 152 -46 89 -144 114 -307 79z"/>
<path d="M22173 15155 c-195 -42 -389 -230 -432 -415 -14 -60 -14 -246 0 -312
28 -129 97 -226 200 -277 132 -66 285 -68 437 -7 l94 38 21 -20 c84 -77 182
-81 231 -10 25 35 19 76 -24 172 -55 125 -63 174 -59 388 4 154 7 187 22 208
43 61 6 128 -103 182 -133 67 -250 83 -387 53z m186 -226 c30 -11 31 -13 24
-48 -11 -50 -7 -278 6 -380 13 -98 12 -99 -65 -137 -122 -59 -243 -36 -294 56
-36 67 -41 211 -9 295 33 89 123 176 210 204 76 24 86 24 128 10z"/>
<path d="M24383 15155 c-135 -37 -250 -133 -315 -265 -55 -111 -70 -191 -66
-340 3 -113 6 -131 33 -185 54 -113 174 -203 320 -240 76 -19 279 -20 360 -1
159 38 269 116 275 196 8 92 -14 120 -93 120 -42 0 -69 -8 -130 -39 -135 -69
-288 -77 -399 -22 -44 22 -94 59 -87 65 2 1 90 40 194 86 243 106 334 152 388
201 58 50 77 92 77 168 0 134 -89 218 -268 256 -84 18 -221 18 -289 0z m266
-246 l35 -15 -65 -36 c-77 -43 -339 -160 -351 -156 -10 4 35 100 67 143 15 19
50 46 78 60 45 23 62 26 127 22 41 -2 91 -10 109 -18z"/>
</g>
</svg>
